<?xml version="1.0" encoding="UTF-8" standalone="no"?>
<svg
   viewBox="0 0 685.64912 149.07755"
   version="1.1"
   id="svg27"
   sodipodi:docname="Check out by bot button.svg"
   width="685.64911"
   height="149.07745"
   inkscape:version="1.2 (dc2aedaf03, 2022-05-15)"
   inkscape:export-filename="..\..\Downloads\Try out bot.png"
   inkscape:export-xdpi="96"
   inkscape:export-ydpi="96"
   xml:space="preserve"
   xmlns:inkscape="http://www.inkscape.org/namespaces/inkscape"
   xmlns:sodipodi="http://sodipodi.sourceforge.net/DTD/sodipodi-0.dtd"
   xmlns="http://www.w3.org/2000/svg"
   xmlns:svg="http://www.w3.org/2000/svg"><sodipodi:namedview
     id="namedview29"
     pagecolor="#ffffff"
     bordercolor="#000000"
     borderopacity="0.25"
     inkscape:showpageshadow="2"
     inkscape:pageopacity="0.0"
     inkscape:pagecheckerboard="0"
     inkscape:deskcolor="#d1d1d1"
     showgrid="false"
     inkscape:zoom="0.67065798"
     inkscape:cx="568.84435"
     inkscape:cy="-230.37078"
     inkscape:window-width="1920"
     inkscape:window-height="991"
     inkscape:window-x="-9"
     inkscape:window-y="-9"
     inkscape:window-maximized="1"
     inkscape:current-layer="svg27" /><defs
     id="defs4"><rect
       x="227.34225"
       y="25.26025"
       width="548.49799"
       height="102.37975"
       id="rect3237" /><inkscape:path-effect
       effect="fillet_chamfer"
       id="path-effect3181"
       is_visible="true"
       lpeversion="1"
       nodesatellites_param="F,0,0,1,0,19,0,1 @ F,0,0,1,0,19,0,1 @ F,0,0,1,0,19,0,1 @ F,0,0,1,0,19,0,1"
       unit="px"
       method="auto"
       mode="F"
       radius="19"
       chamfer_steps="1"
       flexible="false"
       use_knot_distance="true"
       apply_no_radius="true"
       apply_with_radius="true"
       only_selected="false"
       hide_knots="false" /><style
       id="style2">.cls-1{fill:#fff;}</style></defs><path
     style="fill:#5865f2;fill-opacity:1;stroke:#000000;stroke-width:0.479447;stroke-linecap:round;stroke-dasharray:none;stroke-opacity:1;paint-order:markers fill stroke"
     id="rect362"
     width="685.16968"
     height="148.59801"
     x="0.2397235"
     y="0.2397235"
     inkscape:path-effect="#path-effect3181"
     d="M 19.239724,0.2397235 H 666.4094 a 19,19 45 0 1 19,19.0000005 V 129.83773 a 19,19 135 0 1 -19,19 H 19.239724 a 19,19 45 0 1 -19.0000005,-19 l 0,-110.598006 A 19,19 135 0 1 19.239724,0.2397235 Z"
     sodipodi:type="rect" /><text
     xml:space="preserve"
     id="text3235"
     style="font-style:normal;font-variant:normal;font-weight:normal;font-stretch:normal;font-size:48px;font-family:uni-sans;-inkscape-font-specification:uni-sans;white-space:pre;shape-inside:url(#rect3237);display:inline;fill:#5865f2;fill-opacity:1;stroke:#000000;stroke-width:1;stroke-linecap:round;stroke-linejoin:round;stroke-dasharray:none;paint-order:markers fill stroke"
     transform="matrix(1,0,0,0.9999916,-34.927511,23.358634)"><tspan
       x="227.3418"
       y="69.051621"
       id="tspan4986"><tspan
         style="font-family:sans-serif;-inkscape-font-specification:sans-serif;fill:#ffffff;stroke:none"
         id="tspan4984">Try my Discord bot!</tspan></tspan></text><g
     id="g1156"
     transform="matrix(0.62803566,0,0,0.62803566,10.14766,-14.507058)"
     style="stroke-width:6.01801"><g
       id="layer3"
       inkscape:label="Background Circle"
       style="display:none;stroke-width:6.01801"><circle
         style="fill:#5865f2;fill-opacity:1;stroke:#ffffff;stroke-width:15.9242;stroke-dasharray:none;stroke-opacity:1;paint-order:markers fill stroke"
         id="path10162"
         cx="135.46666"
         cy="135.46666"
         r="133.61458" /></g><g
       id="layer2"
       inkscape:label="Discord icon"
       style="stroke-width:6.01801"><path
         class="cls-1"
         d="m 214.00366,64.083601 a 187.13362,187.13362 0 0 0 -46.68108,-14.362043 128.24393,128.24393 0 0 0 -5.97973,12.155233 173.83939,173.83939 0 0 0 -51.80656,0 128.79563,128.79563 0 0 0 -5.97972,-12.155233 188.45059,188.45059 0 0 0 -46.716676,14.397643 C 27.297165,107.82818 19.288595,150.45159 23.292883,192.46989 v 0 a 188.16583,188.16583 0 0 0 57.252383,28.74188 138.28134,138.28134 0 0 0 12.26202,-19.77228 121.76588,121.76588 0 0 1 -19.309561,-9.21876 c 1.619517,-1.17459 3.203432,-2.38476 4.733964,-3.55935 a 134.49061,134.49061 0 0 0 114.469171,0 c 1.54832,1.26357 3.13225,2.47375 4.73396,3.55935 a 122.2286,122.2286 0 0 1 -19.34517,9.23656 137.03556,137.03556 0 0 0 12.26202,19.75448 187.31158,187.31158 0 0 0 57.28798,-28.72409 v 0 c 4.69837,-48.7277 -8.02637,-90.95956 -33.63599,-128.404079 z M 97.879378,166.6289 c -11.158617,0 -20.377367,-10.12639 -20.377367,-22.58417 0,-12.45777 8.898412,-22.67315 20.341767,-22.67315 11.443362,0 20.590932,10.21538 20.395162,22.67315 -0.19574,12.45778 -8.98739,22.58417 -20.359562,22.58417 z m 75.173782,0 c -11.1764,0 -20.35956,-10.12639 -20.35956,-22.58417 0,-12.45777 8.89841,-22.67315 20.35956,-22.67315 11.46114,0 20.53753,10.21538 20.34176,22.67315 -0.19573,12.45778 -8.9696,22.58417 -20.34176,22.58417 z"
         id="path18"
         style="fill:#ffffff;fill-opacity:1;stroke-width:1.59226" /></g><g
       id="g10006"
       transform="matrix(1.4115692,0,0,1.4115692,106.46015,-39.968294)"
       style="stroke-width:9.02414;stroke-dasharray:none"><circle
         style="fill:#ffffff;fill-opacity:1;stroke:#5865f2;stroke-width:3.38403;stroke-linecap:round;stroke-linejoin:round;stroke-dasharray:none;stroke-opacity:1;paint-order:markers fill stroke"
         id="path492-3"
         cx="69.014832"
         cy="173.70033"
         r="24.474165" /><g
         id="g9950"
         transform="translate(0,-1.5875)"
         style="stroke-width:9.02414"
         inkscape:label="g9950"><rect
           style="fill:none;stroke:#5865f2;stroke-width:2.82003;stroke-linecap:round;stroke-linejoin:round;stroke-dasharray:none;stroke-opacity:1;paint-order:markers fill stroke"
           id="rect344"
           width="24.43417"
           height="19.522041"
           x="56.797123"
           y="166.33038"
           ry="1.4352381"
           rx="1.4352381" /><ellipse
           style="fill:#5865f2;fill-opacity:1;stroke:none;stroke-width:4.06084;stroke-linecap:round;stroke-linejoin:round;stroke-dasharray:none;stroke-opacity:1;paint-order:markers fill stroke"
           id="path1889"
           cx="64.285103"
           cy="171.68625"
           rx="2.1086347"
           ry="2.1237342" /><ellipse
           style="fill:#5865f2;fill-opacity:1;stroke:none;stroke-width:4.06085;stroke-linecap:round;stroke-linejoin:round;stroke-dasharray:none;stroke-opacity:1;paint-order:markers fill stroke"
           id="path1889-9"
           cx="73.743103"
           cy="171.78769"
           rx="2.1081061"
           ry="2.1232021" /><rect
           style="fill:#5865f2;fill-opacity:1;stroke:#5865f2;stroke-width:2.03042;stroke-linecap:round;stroke-linejoin:round;stroke-dasharray:none;stroke-opacity:1;paint-order:markers fill stroke"
           id="rect1913"
           width="14.891741"
           height="1.6784842"
           x="61.716873"
           y="178.10902"
           ry="3.0624506"
           rx="1.1702595" /><path
           style="fill:none;fill-opacity:1;stroke:#5865f2;stroke-width:2.82003;stroke-linecap:round;stroke-linejoin:round;stroke-dasharray:none;stroke-opacity:1;paint-order:markers fill stroke"
           d="m 69.014208,166.02332 v -3.21475 z"
           id="path3431" /><ellipse
           style="fill:#5865f2;fill-opacity:1;stroke:#5865f2;stroke-width:3.38403;stroke-linecap:round;stroke-linejoin:round;stroke-dasharray:none;stroke-opacity:1;paint-order:markers fill stroke"
           id="path4159"
           cx="69.014244"
           cy="160.82707"
           rx="1.3942235"
           ry="1.403222" /><path
           style="fill:none;fill-opacity:1;stroke:#5865f2;stroke-width:2.82003;stroke-linecap:round;stroke-linejoin:round;stroke-dasharray:none;stroke-opacity:1;paint-order:markers fill stroke"
           d="m 81.585912,175.70201 h 3.1919 z"
           id="path3431-6" /><ellipse
           style="fill:#5865f2;fill-opacity:1;stroke:#5865f2;stroke-width:3.38403;stroke-linecap:round;stroke-linejoin:round;stroke-dasharray:none;stroke-opacity:1;paint-order:markers fill stroke"
           id="path4159-9"
           cx="175.70265"
           cy="-87.0187"
           transform="rotate(90)"
           rx="1.3863291"
           ry="1.3774093" /><path
           style="fill:none;fill-opacity:1;stroke:#5865f2;stroke-width:2.82003;stroke-linecap:round;stroke-linejoin:round;stroke-dasharray:none;stroke-opacity:1;paint-order:markers fill stroke"
           d="M 56.574779,175.70238 H 53.38288 Z"
           id="path3431-5" /><ellipse
           style="fill:#5865f2;fill-opacity:1;stroke:#5865f2;stroke-width:3.38403;stroke-linecap:round;stroke-linejoin:round;stroke-dasharray:none;stroke-opacity:1;paint-order:markers fill stroke"
           id="path4159-0"
           cx="-175.70239"
           cy="51.008842"
           transform="rotate(-90)"
           rx="1.4031641"
           ry="1.3941659" /></g></g></g></svg>
