<?xml version="1.0" encoding="UTF-8" standalone="no"?>
<svg
   viewBox="0 0 630.00001 150.0001"
   version="1.1"
   id="svg27"
   sodipodi:docname="Join our discord icon.svg"
   width="630"
   height="150"
   inkscape:version="1.2 (dc2aedaf03, 2022-05-15)"
   xmlns:inkscape="http://www.inkscape.org/namespaces/inkscape"
   xmlns:sodipodi="http://sodipodi.sourceforge.net/DTD/sodipodi-0.dtd"
   xmlns="http://www.w3.org/2000/svg"
   xmlns:svg="http://www.w3.org/2000/svg">
  <sodipodi:namedview
     id="namedview29"
     pagecolor="#ffffff"
     bordercolor="#000000"
     borderopacity="0.25"
     inkscape:showpageshadow="2"
     inkscape:pageopacity="0.0"
     inkscape:pagecheckerboard="0"
     inkscape:deskcolor="#d1d1d1"
     showgrid="false"
     inkscape:zoom="1.2876717"
     inkscape:cx="228.31906"
     inkscape:cy="53.973384"
     inkscape:window-width="1920"
     inkscape:window-height="991"
     inkscape:window-x="-9"
     inkscape:window-y="-9"
     inkscape:window-maximized="1"
     inkscape:current-layer="svg27" />
  <defs
     id="defs4">
    <rect
       x="227.34225"
       y="25.26025"
       width="411.3028"
       height="93.353104"
       id="rect3237" />
    <inkscape:path-effect
       effect="fillet_chamfer"
       id="path-effect3181"
       is_visible="true"
       lpeversion="1"
       nodesatellites_param="F,0,0,1,0,19,0,1 @ F,0,0,1,0,19,0,1 @ F,0,0,1,0,19,0,1 @ F,0,0,1,0,19,0,1"
       unit="px"
       method="auto"
       mode="F"
       radius="19"
       chamfer_steps="1"
       flexible="false"
       use_knot_distance="true"
       apply_no_radius="true"
       apply_with_radius="true"
       only_selected="false"
       hide_knots="false" />
    <style
       id="style2">.cls-1{fill:#fff;}</style>
  </defs>
  <path
     style="fill:#5865f2;fill-opacity:1;stroke:#000000;stroke-width:0.5;stroke-linecap:round;stroke-dasharray:none;paint-order:markers fill stroke;stroke-opacity:1"
     id="rect362"
     width="630"
     height="148.59801"
     x="0.70097762"
     y="0.70099282"
     inkscape:path-effect="#path-effect3181"
     d="M 19.700978,0.70099282 H 611.70098 a 19,19 45 0 1 19,19.00000018 l 0,110.598007 a 19,19 135 0 1 -19,19 H 19.700978 a 19,19 45 0 1 -19.00000038,-19 V 19.700993 A 19,19 135 0 1 19.700978,0.70099282 Z"
     sodipodi:type="rect" />
  <path
     class="cls-1"
     d="m 144.52977,35.250841 a 105.15,105.15 0 0 0 -26.23,-8.07 72.06,72.06 0 0 0 -3.36,6.83 97.68,97.68 0 0 0 -29.109998,0 72.37,72.37 0 0 0 -3.36,-6.83 105.89,105.89 0 0 0 -26.250001,8.09 c -16.6,24.56 -21.099999,48.51 -18.849999,72.119999 v 0 a 105.73,105.73 0 0 0 32.169999,16.15 77.7,77.7 0 0 0 6.890001,-11.11 68.42,68.42 0 0 1 -10.850001,-5.18 c 0.91,-0.66 1.8,-1.34 2.66,-2 a 75.57,75.57 0 0 0 64.319999,0 c 0.87,0.71 1.76,1.39 2.66,2 a 68.68,68.68 0 0 1 -10.87,5.19 77,77 0 0 0 6.89,11.1 105.25,105.25 0 0 0 32.19,-16.14 v 0 c 2.64,-27.379999 -4.51,-51.109999 -18.9,-72.149999 z m -65.249998,57.62 c -6.270001,0 -11.450001,-5.69 -11.450001,-12.69 0,-7 5,-12.74 11.430001,-12.74 6.43,0 11.57,5.74 11.46,12.74 -0.11,7 -5.05,12.69 -11.44,12.69 z m 42.239998,0 c -6.28,0 -11.44,-5.69 -11.44,-12.69 0,-7 5,-12.74 11.44,-12.74 6.44,0 11.54,5.74 11.43,12.74 -0.11,7 -5.04,12.69 -11.43,12.69 z"
     id="path18" />
  <text
     xml:space="preserve"
     id="text3235"
     style="font-style:normal;font-variant:normal;font-weight:normal;font-stretch:normal;font-size:48px;font-family:uni-sans;-inkscape-font-specification:uni-sans;white-space:pre;shape-inside:url(#rect3237);display:inline;fill:#5865f2;fill-opacity:1;stroke:#000000;stroke-width:1;stroke-linecap:round;stroke-linejoin:round;stroke-dasharray:none;paint-order:markers fill stroke"
     transform="matrix(1,0,0,0.9999916,-34.947047,23.819903)"><tspan
       x="227.3418"
       y="69.051621"
       id="tspan1093"><tspan
         style="font-family:sans-serif;-inkscape-font-specification:sans-serif;fill:#ffffff;stroke:none;stroke-width:1"
         id="tspan1091">Join our Discord!</tspan></tspan></text>
</svg>
